<?xml version="1.0" encoding="utf-8"?>
<svg viewBox="-492.174 43.989 449.7 430.4" xmlns="http://www.w3.org/2000/svg">
  <defs>
    <clipPath id="c_1">
      <path d="M0,0H572V572H0Z"/>
    </clipPath>
    <clipPath id="c2">
      <path d="M288.9,572.9L217.1,536.2L40,445.5L253,29.4L531.4,171.9l-205.2,401Z"/>
    </clipPath>
    <clipPath id="c3">
      <path d="M440.1,543.7L1.1,346.5L57.2,221.7L133.1,52.8L572.1,250l-132,293.7Z"/>
    </clipPath>
    <clipPath id="c4">
      <path d="M187,413V183.8H384V413Z"/>
    </clipPath>
  </defs>
  <g clip-path="url(#c_1)" transform="matrix(1, 0, 0, 1, -536.574402, -29.911058)">
    <g clip-path="url(#c2)">
      <path fill-rule="evenodd" d="M229.4,485.4c-2.7,.4,-3.2,-6,-7.6,-3.9c-.6,1.2,-.4,2,.4,2.8c-1.1,1.3,-3.9,-1.4,-4.1,-2.1c-1.7,-.5,-1.9,3.6,-3.5,3.4C204.3,475.4,203,462.2,205.3,448c-16.2,11.2,-29.9,43,-41.8,56.3c-5.5,-2,-8.9,-1.9,-13.3,-6c-1.6,-1.4,-2.1,.8,-3.2,1c-4.5,-5.8,-8.5,-8.9,-16,-14.2c-.8,-10.4,1.3,-21.7,7.2,-32.6c2.8,-5.2,8.8,-8.6,11.1,-13.3c1.2,-2.4,.8,-4.5,3.9,-7.5c-.7,-1.5,-4.3,-2,-5.5,-4.5c-5.2,1.4,-8.7,8.4,-13.8,10.1c-.1,2.3,.3,2.9,2.7,3.2c-1.8,.3,-2.9,3,-5.2,1.6c.4,-.6,1.1,-.1,1.7,0c1.1,-1.8,-4.9,-1.4,-2.4,-3.8c-4.4,1.4,-8.2,.2,-10.6,4.1c-2.9,-1.2,-5.1,-2.6,-5.5,-4.6c-13.1,1.4,-13.8,-11.9,-17.4,-20.1c-1.1,-13.5,9.5,-23.4,12.7,-36.6c.1,-.3,.5,-1.9,.4,-2.4c-1.1,-13,-11,-29.7,1.4,-43.3c-.7,-3.1,-3.5,.4,-4.1,-2.1c3.1,-4.3,3.2,-7.5,-.2,-9.7c6.8,-7.4,7,-11.6,8.1,-20.9c-1.3,.2,-2.3,1.2,-3.5,1.7c2.6,-5.7,8.2,-11.1,11.9,-16.3c-1.6,-1.5,-2.1,.7,-3.1,1c1.8,-7.5,8.3,-15.4,12.5,-21.2c.3,-1.1,-1.4,-1.5,-2.4,-2.1c3,-4.4,7.7,-13.8,12.9,-16.7c.3,-1.8,1.7,-5.4,3.9,-7.6c12.6,-12.4,26.9,-30.3,36.5,-46c1.8,-3,1.8,-7.1,5.9,-8.2c6.4,-15.1,19.2,-23.9,28.9,-36.2c10.1,-12.7,21.2,-24.8,27.2,-37.9c-2,0,-5.9,5.7,-9.7,5.4c10.5,-17.5,21.1,-23.2,33,-35.7c1.5,1.1,2.1,-.5,3.8,1c8.8,-4.1,16.9,-3.9,25.9,-10c.9,1.2,-.6,3.2,2.3,3.8c4.7,-3.1,3.2,1.1,6.9,-3.4c1.4,1.6,2.5,3.4,5.5,4.5c.1,2.5,-2.6,2.3,.7,3.8c-.7,1.6,-2.6,-.9,-3.8,-1.1c.1,3.2,.2,1.9,-2.1,4.1c2.8,3,3.5,-.9,5.2,-1.6c2.3,1.7,5.2,.4,6.1,3.1c2.2,.1,5.3,-5.2,5.5,-.6c2.8,-2.5,6.7,-1.6,9,-5.8c3.6,2.6,3.5,3,6.9,5.3c-.5,1.3,-2.5,3,-.1,3.4c-1.1,3,-1.3,-1,-3.8,-1.1c-1.7,3.8,2.7,13.6,-1.1,12.4c1.3,4.2,2.4,4.8,-.4,11c1.4,.4,1.9,-2.4,3.7,-.7c-.7,2.4,-2.4,1.8,-3.1,4.5c4.4,1.7,6.2,-4.5,9.4,-6.5c2.1,2.2,3.1,3,.6,5.5c4.2,3.6,7.3,-.7,6.2,-3.7c2,2.3,2.9,4.8,4.1,7.3c2.4,-1.3,5,-2.3,7.2,-4.1c7,7.6,19.2,6.8,31.9,13.7c-1.2,2.7,-.7,0,-2.4,-.3c-8.5,11.9,-24.1,36.4,-33.9,59.5c12.1,-17.3,23.5,-29.2,31.1,-50.6c3,.8,-.3,5.2,3,4.1c3,0,3.3,-6.7,5.6,-7.5c2.1,.9,1.7,2.5,2.4,3.8c6,-2.9,14.1,-8.5,16.6,-12.2c4,-.8,7.4,3.5,13,5c-1,1.7,-3.1,-.2,-4.5,.3c1.3,2.2,4,4,4.4,6.5c-2.9,4.1,-2.7,11.4,-3.2,16.5c4,-4.5,3.3,-7.6,7.3,-12.6c1.7,1.1,-1.1,3.8,0,5.1c2.7,-3.5,6.4,-3.8,8.7,-8.5c2.1,-1,-1.9,4.8,-2.5,6.5c4,-3.7,8.4,-5.7,12.5,-9.1c2.1,1.2,1,3.4,1.6,5.1c3.5,1.9,5.3,-1.4,8.3,-.9c2.7,2.5,-.5,4.6,-2.1,7.5c.4,2.5,3.5,-2,5.1,-1.7c1.5,1.1,2.4,2.3,3.4,3.5c-3.5,5,-1.3,8.1,-4.9,13c-.6,2.3,1.8,.1,2.8,1.4c-5.5,7.5,-7.5,19.5,-15.7,23.9c-1.5,2,.9,2.8,.3,4.5c1.5,2,5,-3.1,3.7,1.1c2.1,0,1.6,-3.9,-1.3,-4.2c7.8,1.9,10.3,7,15.7,11.5c-3.6,13,-9.5,26.7,-13.4,39.8c6.5,1,10.5,7,15.4,10.5c1.3,47.6,-36.7,109.5,-67.2,161.6c-13.2,22.5,-27.5,46.6,-42.8,56.6c-3.9,-3.2,-5.8,-4.9,-9.2,-9c5.9,-17,21.2,-38.4,30.8,-60.2c-18.2,16.4,-38.4,43.6,-57.3,63c-3.7,3.8,-8.4,7.7,-11.5,14c-3,-.3,-5.7,.1,-7.6,3c-1.4,-2.1,-4.1,-5.1,-5.9,-.4C294,475,287.6,474.6,283.2,468c-7.2,-.5,-14.2,2.1,-18.9,-7.1c-9.9,.4,-14.8,16.6,-24.9,16.7c-.6,1.7,-2,.8,-2.4,3c-3.8,-.9,-7.5,-1.8,-10,1c.9,1.9,3.7,2.4,2.4,3.8ZM223.1,382.9c1.1,2.9,-4.9,2.8,-1.8,5.1c.9,-2.1,4.1,-3.2,1.8,-5.1Zm15.6,-18.8c-2.8,-.5,-6.5,5.7,-6.2,8.9c1.7,-2.9,6.8,-4.6,6.2,-8.9Zm4.2,-6.5c-.4,2.8,-6.2,3.8,-3.1,6.2c.4,-3.1,4.4,-3.7,3.1,-6.2Zm47.4,7c-2.9,4.3,-10.3,12.4,-9.4,16.8c3.6,-6,9.5,-11.2,9.4,-16.8Zm12.2,-91.3c1,-2.9,-3.9,1.7,-4.1,1.3c0,.1,1,-2.9,.3,-2.4c-2.9,2.2,-2.5,6.1,-4.9,9.6c-3.3,4.9,-10.1,8.3,-8.7,13.7c-8.7,7.8,-12.4,18.6,-18.5,27.6C259.3,334,247.9,345.4,246,354.9c4.6,-5.2,10.2,-13.5,16.7,-17.4c-.1,.6,-.7,1.4,0,1.7c4.6,-5.7,11.3,-14.4,13.9,-20.4c-2.2,.1,-2.6,6.1,-4.8,6.1c-.8,-3.1,3.8,-4.6,2.8,-7.2c-2.3,2.9,-4.6,6,-7.6,6.5c3.6,-3.4,6.4,-9.5,9.3,-6.5c5.6,-12.6,19.9,-26.7,20.3,-36.2c-1.3,1.4,-4.2,6.8,-4.9,4.4c3.4,-4.8,6.6,-10.3,10.8,-12.6Zm2.9,93.9C328.2,335.5,353,291.7,368.3,257.8c-18.4,31.4,-36.7,68.7,-60.7,96.7c.3,-.9,1.1,-1.9,.4,-2.4c.3,7.3,-9.1,8.7,-11.2,16.7c2.6,.3,5,-1.2,8.6,-1.6Zm-65,-75.6c-1.3,3.7,-3.2,5.3,-5.2,6.8c3.6,2.6,8,-4.9,5.2,-6.8ZM245.8,271c-2.4,-2.5,-1.8,3.9,-4.2,1.3c1.4,-.4,2.2,-2.6,3.2,-4.4c.9,2.8,1.1,-.7,2.7,-.3c-.4,1.1,-1.5,2.4,-.7,3.1c2,-3,3.4,-5.1,6.3,-8.9c-2.6,-.9,-3.3,4,-5.9,3c4.3,-4.9,8.3,-8.9,9.8,-15.7c-9.8,11.7,-20.5,25.6,-28.2,38.2c2.4,1,2.2,-1.5,2.7,1.4c.4,-.4,.7,-1.3,1.4,-1c2,-2.7,-1.7,-.1,-.7,-2c6.3,-3.2,8.6,-9.8,13.6,-14.7Zm5.1,5.2c-2.4,3.7,-5.3,6.1,-7.3,10.9c4.7,-2.9,4.1,-3.5,7.3,-10.9Zm28.2,.6c-1.2,1.3,-6.1,7.1,-3.9,7.6c.7,-3.5,5,-4.6,3.9,-7.6Zm11.1,-16.7c-5.8,1.8,-5.8,11.3,-11.1,15c4,1.2,4.8,-7.6,8.3,-7.8c-2.8,6.1,-5.9,11.1,-9.1,16.1c14.7,-16.7,30.5,-41.6,37.4,-61.2c-.4,.7,-1.2,1.6,-1,.3c16,-26.2,29.5,-45.9,32.3,-73.2c-1.7,4.4,-8.8,12.9,-10.9,19.5c.5,-.8,.9,-2,1.8,-1.7c-1,2.4,-6.6,5.2,-2.1,4.1c-3.2,13,-8.8,14.6,-10.9,22.9c.5,-.8,1,-1.5,2.1,-.7c-5.1,.8,-4.3,7.4,-7.7,9.9c2.6,2.7,1.9,-4.6,4.5,-2c-13.7,17.7,-26.1,42.9,-33.6,58.8Zm6.1,-23.7c-8.6,8.9,-14.8,24,-20.6,35.2C282.8,261,290.9,250,296.3,236.4Zm-99.5,-25c-3.3,2.6,-9.7,5.3,-8.7,12c3.2,-2,7.9,-8.4,8.7,-12Zm108.5,56.4c-4.6,-1.3,-1.3,.5,-4.5,3.7c2.3,1.3,3.3,-1.5,4.5,-3.7Zm1.5,-7.9c1,1,-.7,.6,-1.4,1c.8,1.9,-1.8,4.1,-2.1,5.9c.6,-.9,1.9,-.1,2.7,-.4c1,-2.8,2.9,-2.7,3.8,-5.8c-2.1,0,-1.9,-1.4,-3,-.7ZM281.7,221.2c-.4,.8,-1.2,1.9,-.4,2.4c7.6,-6.4,11.2,-12.4,17.1,-25c-4.4,-6.2,8.5,-16.9,6.7,-25c-4.5,12.4,-9.9,21,-16.7,29.4c6.2,-10.9,9.4,-20.4,13.6,-28.4c-9.2,6.4,-13.6,23.2,-20.2,36.3c-6.4,12.4,-14.9,24,-19.6,34.8c6.4,-8.1,14.2,-18.1,19.5,-24.5ZM218.3,194.8c1.2,1.1,-1.6,4.5,-2.5,4.8c5.5,-.2,7.6,-10.7,11.8,-14.7c-3.9,-.3,-5,8,-9.3,6.4c2.9,-2.8,7.8,-8.6,4.6,-12.3c-4.1,7,-11.2,13.6,-8.8,18.8c-5.7,3.1,-6,6.4,-10.1,13c.9,.5,.5,1.3,1.7,1.7c7.7,-4.4,6.9,-11.7,12.6,-17.7Zm-1.2,-28.2c-3.9,7,-6.6,11.9,-11.8,16.4c.8,-4.2,6.3,-6.3,3.9,-9.3c-6.6,9.3,-13.6,17.7,-16.8,29.4c6.1,-7.9,9.3,-14.5,16,-19.4c-1.9,2.7,-3,7.5,-4.2,11.6c8.8,-9.6,17,-25.1,23.7,-36.2c-2.3,-.6,-3.8,1.2,-5.9,1.3c7.9,-7.6,15.7,-16.2,19.5,-28c-9.6,10.5,-14.1,15.6,-22.3,31.8c-4.2,-.7,-8.1,7.1,-8,8.8c2.5,-4.1,3.3,-5.5,5.9,-6.4Zm95.6,85.1c-1.9,1.6,-2.3,5.3,-5.2,6.8c3.9,1.8,5,-3.8,5.2,-6.8Zm-.8,10c.6,-2.3,3.9,-5.5,2.8,-7.2c-1.6,2.4,-5.6,4.6,-2.8,7.2ZM323.3,258c-.5,3.9,-2.3,3.2,-4.5,5.5c1.9,1.1,7.2,-3.4,4.5,-5.5ZM269.7,212.5c1.4,-2.1,2.8,2.1,2.7,4.8c-3.1,-1.1,-5.4,10.7,-6.6,4.4c-2.1,5.6,-5.4,7.6,-5.6,11c3.1,-1,4.8,-6.4,8,-7.2c-.4,.9,-.6,1.7,.7,2.1c8,-10.5,17,-27.2,22.4,-42.1c-6.1,1.5,-7.2,9.3,-12.5,14.3c1.8,-3.6,4.1,-7.4,3.5,-10.2c-7.7,7.3,-8.6,13.6,-12.6,22.9Zm57.1,40.4c-.2,.6,-.7,1.3,-.1,1.7c2.5,-5.4,9.8,-12.6,8.5,-18.1c-.8,2.5,-2.6,4.5,-3.5,1.7c-.4,5.4,-7.3,10.2,-7.4,16c.8,-.6,1.6,-1.1,2.5,-1.3Zm22.4,-43.8c-2.3,3,-3.8,8.2,-4.9,11.3c2.7,-2.8,6.1,-7.4,4.9,-11.3Zm5.9,-6.5c-.7,1.7,-5.6,4.6,-2.8,5.5c.8,-1.2,4.1,-3.6,2.8,-5.5Zm-114,-60.9c-2.9,.2,-5.4,4.3,-3.8,5.8c1.4,-1.4,2.7,-3.2,3.8,-5.8Z" class="g1" style="fill: rgb(255, 222, 89);"/>
      <path fill-rule="evenodd" d="M217.1,138c-1.1,1.7,.7,-7.1,4.1,-4.7c-1.5,1.2,-2.5,3.9,-4.1,4.7Z" class="g1" style="fill: rgb(255, 222, 89);"/>
      <path fill-rule="evenodd" d="M225.1,124c4.1,1.7,-2.1,3.8,-3.5,8.6c-2.1,-7.7,7.3,-14,11.9,-21.6c4.8,-7.9,8.2,-16.8,15.6,-20.4c-7.6,8.1,-16.2,23.6,-24,33.4Z" class="g1" style="fill: rgb(255, 222, 89);"/>
      <path fill-rule="evenodd" d="M236.2,112.4c-1.2,-.2,5.4,-5.2,7.3,-7.5c0,3.2,-5.1,5.6,-7.3,7.5Z" class="g1" style="fill: rgb(255, 222, 89);"/>
    </g>
    <g clip-path="url(#c3)">
      <path fill-rule="evenodd" d="M471.2,346.9c.5,2.8,-6,3.6,-3.6,8c1.2,.5,2.1,.3,2.8,-.5c1.5,1,-1.1,4.1,-1.9,4.3c-.4,1.8,3.8,1.8,3.7,3.4c-10,11.2,-23.4,13.1,-38.2,11.5c12.4,16,45.8,28.5,60.1,40c-1.8,5.8,-1.5,9.3,-5.4,14.1c-1.4,1.7,.8,2,1.2,3.1c-5.8,5,-8.8,9.2,-13.8,17.2c-10.7,1.4,-22.4,-.1,-33.9,-5.6c-5.5,-2.7,-9.3,-8.7,-14.3,-10.8c-2.5,-1.1,-4.7,-.5,-7.9,-3.6c-1.5,.9,-1.8,4.6,-4.4,5.9c1.8,5.3,9.1,8.5,11.2,13.7c2.3,-.1,2.9,-.5,3.1,-3c.4,1.9,3.2,2.8,2,5.3c-.7,-.4,-.2,-1.2,-.1,-1.8c-2,-1,-1.3,5.1,-3.8,2.6c1.6,4.6,.6,8.5,4.7,10.8c-1.1,3,-2.4,5.4,-4.4,5.9c2.1,13.3,-11.6,14.8,-19.7,18.9c-13.8,1.8,-24.7,-8.5,-38.4,-11.2c-.3,0,-1.9,-.3,-2.5,-.2c-13.2,1.8,-29.9,12.8,-44.6,.8c-3.1,.9,.7,3.6,-1.9,4.3c-4.5,-3,-7.9,-2.8,-9.9,.8c-8,-6.7,-12.3,-6.7,-21.9,-7.3c.3,1.3,1.3,2.3,1.9,3.5c-6,-2.4,-11.9,-7.9,-17.4,-11.3c-1.4,1.7,.8,2,1.1,3.1C267.3,467.3,258.9,461,252.6,457c-1.1,-.2,-1.4,1.5,-2,2.6c-4.7,-2.9,-14.6,-7.2,-17.9,-12.4c-1.8,-.2,-5.6,-1.4,-7.9,-3.6C211.3,431.3,192.2,417.5,175.5,408.5c-3.2,-1.8,-7.3,-1.5,-8.7,-5.7C150.9,397,141.2,384.3,128.1,375C114.5,365.3,101.5,354.5,87.7,349.1c.1,2,6.2,5.7,6.1,9.6c-18.6,-9.8,-25,-20.4,-38.5,-32c1.1,-1.6,-.6,-2.2,.9,-4c-4.7,-8.8,-4.9,-17.2,-11.7,-26c1.2,-1,3.3,.4,3.8,-2.7c-3.4,-4.6,1,-3.2,-3.9,-6.9c1.7,-1.5,3.4,-2.8,4.4,-5.9c2.6,-.2,2.5,2.6,3.9,-.8c1.6,.6,-.9,2.7,-.9,3.9c3.2,-.3,1.8,-.3,4.3,2c2.9,-3.1,-1.2,-3.6,-2,-5.3c1.6,-2.5,.2,-5.4,2.9,-6.5c0,-2.2,-5.6,-5.1,-.9,-5.6c-2.7,-2.8,-2,-6.8,-6.4,-8.9c2.5,-3.9,2.8,-3.8,5,-7.3c1.4,.4,3.3,2.3,3.5,-.2c3.2,1,-.9,1.4,-.9,4c4,1.6,13.8,-3.5,12.8,.5c4.2,-1.6,4.8,-2.7,11.3,-.1c.4,-1.6,-2.5,-1.9,-.8,-3.9c2.4,.7,1.9,2.4,4.7,3c1.5,-4.6,-5,-6.1,-7.1,-9.3c2.1,-2.3,2.9,-3.3,5.6,-.9c3.4,-4.5,-1.2,-7.4,-4.1,-6.2c2.2,-2.2,4.7,-3.2,7.2,-4.6c-1.4,-2.4,-2.6,-5,-4.5,-7.2c7.4,-7.6,5.9,-20,12.4,-33.5c2.8,1.1,0,.7,-.2,2.5c12.7,8.1,38.7,22.9,62.9,31.7C139.1,217,126.2,205.9,103.9,199.2c.6,-3.1,5.3,.1,4.1,-3.3c-.2,-3.1,-7.1,-3,-8,-5.3c.7,-2.2,2.4,-1.9,3.7,-2.7c-3.3,-6.1,-9.5,-14.1,-13.4,-16.4c-1,-4.1,3.2,-7.9,4.4,-13.7c1.8,.9,0,3.2,.6,4.6c2.2,-1.4,3.9,-4.2,6.5,-4.9c4.4,2.9,11.8,2.3,17.1,2.5c-4.8,-3.8,-8,-3,-13.4,-6.9c1.1,-1.8,4,1,5.3,-.2c-3.8,-2.6,-4.2,-6.4,-9.2,-8.5c-1.2,-2.1,5,1.7,6.8,2.2c-4,-3.8,-6.3,-8.3,-10.1,-12.3c1.2,-2.3,3.6,-1.2,5.3,-2c1.7,-3.7,-1.8,-5.3,-1.4,-8.4c2.4,-3,4.8,.2,7.8,1.8c2.5,-.7,-2.2,-3.5,-2,-5.3c1,-1.6,2.2,-2.6,3.4,-3.7c5.3,3.4,8.4,1,13.7,4.4c2.3,.5,0,-1.8,1.3,-2.9c7.9,5.3,20.3,6.7,25.4,14.9c2.1,1.4,2.8,-1.1,4.6,-.5c1.9,-1.7,-3.5,-5,.9,-3.9c-.1,-2.2,-4.1,-1.5,-4.2,1.5c1.5,-8.1,6.6,-10.9,11,-16.7c13.5,3,27.9,8.3,41.5,11.7c.8,-6.7,6.7,-11.2,10,-16.3c48.9,-3.9,114.5,31.9,169.6,60.6c23.9,12.3,49.4,25.7,60.5,41c-3.1,4.1,-4.7,6.2,-8.8,10c-17.8,-5.3,-40.5,-19.8,-63.5,-28.6c17.9,17.8,46.9,37.2,67.8,55.7c4.1,3.6,8.4,8.2,15,11c-.1,3.1,.4,5.9,3.5,7.7c-2.1,1.6,-5,4.4,-.1,6c-2.4,8.7,-2.5,15.3,-9.1,20.2c-.1,7.4,2.9,14.4,-6.3,19.8c1,10.2,17.8,14.4,18.4,24.7c1.9,.5,1,2,3.3,2.4c-.8,3.8,-1.5,7.7,1.5,10.2c2,-1,2.3,-3.9,3.8,-2.7ZM366.1,358.7c3,-1.3,3.2,4.9,5.4,1.6c-2.2,-.8,-3.5,-4,-5.4,-1.6ZM346,343.6c-.3,3,6.3,6.4,9.5,6c-3.1,-1.7,-5.1,-6.8,-9.5,-6Zm-6.9,-3.9c2.9,.3,4.2,6.2,6.5,2.9c-3.1,-.3,-4,-4.4,-6.5,-2.9Zm4.7,-49.1c4.6,2.7,13.3,10,17.8,8.8c-6.4,-3.4,-12,-9.2,-17.8,-8.8Zm-94.5,-7.8c-3,-.9,2,3.9,1.6,4.2c.1,-.1,-3.1,-.9,-2.5,-.2c2.4,2.9,6.4,2.2,10.1,4.5c5.2,3.2,9.1,10,14.5,8.2c8.6,8.6,19.8,11.8,29.4,17.6c11.6,7,24,18.1,33.8,19.5c-5.6,-4.4,-14.5,-9.7,-18.8,-16.2c.7,.1,1.5,.6,1.8,-.1C313.1,315.8,303.8,309.4,297.4,307c.3,2.3,6.4,2.4,6.6,4.7c-3.2,1,-4.9,-3.6,-7.6,-2.5c3.1,2.2,6.4,4.3,7.1,7.5c-3.6,-3.6,-10.1,-6.1,-7.1,-9.3c-13.3,-5,-28.5,-19.1,-38.4,-18.9c1.6,1.2,7.3,3.9,4.8,4.7C257.7,290,251.9,287,249.3,282.8Zm96.4,-7.9C312,253.2,265.6,229.9,229.9,216c33.3,17.3,72.6,34.1,102.6,57.3c-.9,-.2,-2,-1,-2.5,-.2c7.6,-.8,9.5,8.9,17.8,10.6c.2,-2.7,-1.5,-5.1,-2.1,-8.8Zm-74.3,70.8c3.8,1.1,5.6,3,7.3,5c2.4,-3.9,-5.5,-8,-7.3,-5ZM250,341.2c-2.5,2.6,4,1.7,1.5,4.2c-.4,-1.4,-2.8,-2.1,-4.7,-3c2.9,-1.1,-.7,-1.1,-.5,-2.8c1.2,.4,2.6,1.5,3.3,.6c-3.3,-1.9,-5.5,-3.3,-9.5,-6c-.8,2.7,4.3,3.2,3.4,5.9c-5.2,-4.1,-9.6,-8.1,-16.6,-9.2c12.5,9.4,27.4,19.7,40.7,27c.9,-2.6,-1.6,-2.2,1.3,-2.9c-.5,-.4,-1.4,-.7,-1.1,-1.4c-2.9,-1.9,0,1.7,-2.1,.8c-3.6,-6.3,-10.4,-8.3,-15.7,-13.2Zm5,-5.5c4,2.3,6.6,5.1,11.7,7c-3.3,-4.8,-3.9,-4.1,-11.7,-7Zm-.8,-29c1.3,1.2,7.5,5.9,7.9,3.6c-3.6,-.5,-5,-4.9,-7.9,-3.6ZM236.4,296.1c2.2,5.9,12,5.4,16,10.7c1.1,-4.2,-8,-4.5,-8.5,-8.2c6.4,2.6,11.8,5.5,17,8.5C243.1,292.9,216.6,277.9,196.1,271.9c.8,.3,1.7,1.2,.4,1.1c-27.8,-15.2,-48.7,-28,-77,-29.4c4.7,1.5,13.7,8.3,20.6,10.1c-.8,-.5,-2.1,-.8,-1.8,-1.7c2.5,.9,5.7,6.5,4.3,2c13.5,2.5,15.5,8.2,24.1,9.9c-.8,-.4,-1.6,-.9,-.8,-2.1c1.1,5.2,7.9,4.1,10.6,7.4c2.6,-2.8,-4.9,-1.7,-2.3,-4.5c18.9,13.1,45.5,24.5,62.2,31.4Zm-24.6,-5c9.6,8.4,25.3,14,37.2,19.4c-11.3,-6.7,-23,-14.6,-37.2,-19.4ZM191.2,394.7c2.9,3.3,6,9.7,12.8,8.3c-2.2,-3.2,-9,-7.7,-12.8,-8.3ZM243.5,280.2c-1,4.8,.6,1.4,4.1,4.5c1.2,-2.5,-1.7,-3.4,-4.1,-4.5Zm-8.1,-1.1c.9,-1.1,.6,.7,1.1,1.4c1.9,-.9,4.2,1.7,6.1,1.9c-1,-.7,-.1,-2,-.5,-2.8c-3,-.9,-2.9,-2.9,-6.2,-3.7c.1,2.3,-1.4,2.1,-.5,3.2ZM196.8,307c.9,.2,2,1,2.5,.2C192.4,299.7,186,296.3,172.8,291c-6.2,4.8,-17.9,-7.9,-26.1,-5.7c12.9,4,22.1,9.1,31.1,15.7c-11.5,-5.8,-21.5,-8.6,-29.9,-12.5c7.1,9.2,24.6,12.7,38.3,18.9c13.1,5.9,25.5,14,36.9,18.3C214.4,319.5,203.7,312,196.8,307ZM173,373.5c1.2,-1.3,4.8,1.3,5.1,2.3c-.4,-5.7,-11.4,-7.3,-15.7,-11.4c-.1,4,8.5,4.7,7.1,9.3c-3,-2.9,-9.4,-7.6,-12.9,-4.1c7.4,3.8,14.5,10.8,19.8,8c3.5,5.7,6.9,5.9,13.8,9.7c.5,-.9,1.4,-.6,1.7,-1.8C187,377.8,179.5,379,173,373.5Zm-28.9,2.6c7.5,3.7,12.6,6.2,17.4,11.3c-4.3,-.5,-6.7,-6.1,-9.7,-3.4c9.9,6.2,18.9,13,31.1,15.7c-8.4,-5.9,-15.3,-8.9,-20.8,-15.5c2.9,1.9,7.9,2.8,12.2,3.8C164,379.4,147.6,371.8,135.8,365.5c-.4,2.4,1.5,3.8,1.7,5.9C129.3,363.8,120,356.2,107.7,352.8c11.3,9.4,16.8,13.7,33.8,21.3c-.5,4.4,7.7,8,9.5,7.8c-4.3,-2.4,-5.8,-3.1,-6.9,-5.8ZM226.6,273.5c1.7,1.8,5.6,2,7.3,5c1.6,-4.1,-4.2,-5,-7.3,-5Zm10.3,.3c-2.4,-.6,-5.8,-3.7,-7.5,-2.6c2.5,1.6,5,5.6,7.5,2.6Zm-4.4,-11.5c4.1,.2,3.4,2.2,5.9,4.3c1,-2.1,-3.8,-7.3,-5.9,-4.3Zm-44,57.4c-2.2,-1.4,2.1,-3,4.8,-3c-.9,3.2,11.3,4.9,4.9,6.5c5.8,1.9,8.1,5.2,11.6,5.2c-1.2,-3.2,-6.9,-4.6,-7.8,-7.8c.9,.3,1.8,.5,2.1,-.8c-11.2,-7.7,-28.9,-16.1,-44.4,-20.9c1.8,6.2,9.9,6.9,15.3,12.2c-3.8,-1.8,-7.8,-3.9,-10.7,-3.1c7.9,7.5,14.5,8.1,24.2,11.7Zm38.6,-60.8c.6,.1,1.4,.7,1.7,0c-5.7,-2.3,-13.5,-9.4,-19,-7.7c2.6,.6,4.7,2.4,1.9,3.4c5.6,.2,10.9,7,16.9,6.8c-.7,-.8,-1.3,-1.5,-1.5,-2.5ZM180.9,238.2c3.2,2.2,8.6,3.5,11.9,4.5c-3,-2.7,-8,-6,-11.9,-4.5Zm-7,-5.7c1.8,.5,5,5.4,5.8,2.5c-1.3,-.7,-3.9,-4,-5.8,-2.5ZM117.3,352.8c.3,3,4.7,5.3,6.1,3.6c-1.5,-1.4,-3.4,-2.6,-6.1,-3.6Z" class="g2" style="fill: rgb(143, 227, 217);"/>
      <path fill-rule="evenodd" d="M114.7,377.7c1.8,1,-7.3,-.4,-5.1,-4c1.3,1.5,4.2,2.4,5.1,4Z" class="g2" style="fill: rgb(143, 227, 217);"/>
      <path fill-rule="evenodd" d="M99.9,370.2c1.6,-4.3,4,2,9,3.1c-7.8,2.6,-14.8,-6.7,-22.8,-11.1c-8.4,-4.6,-17.7,-7.5,-21.8,-15c8.7,7.4,25.1,15.5,35.6,23Z" class="g2" style="fill: rgb(143, 227, 217);"/>
      <path fill-rule="evenodd" d="M87.4,359.4c-.2,1.2,-5.6,-5.3,-8.1,-7.2c3.3,-.2,6,5,8.1,7.2Z" class="g2" style="fill: rgb(143, 227, 217);"/>
    </g>
    <path d="M384,242.1V354.9c-.1,0,-.1,.1,-.1,.1q0,.1,0,.1h-.1c0,0,0,.1,0,.1q-.1,0,-.1,0l-5.3,3.1l-92.6,54.5v.1h-.1c0,0,-.1,0,-.1,0c0,0,-.1,0,-.1,0q-.1,0,-.1,0q-.1,0,-.1,0q-.1,0,-.1,0q0,-.1,0,-.1L187.3,355.2c0,0,-.1,0,-.1,0c0,0,0,-.1,0,-.1h-.1V355c0,0,-.1,-.1,-.1,-.1q0,-.1,0,-.1q0,-.1,0,-.1V242.1q0,-.1,0,-.1c0,0,0,-.1,0,-.1v-.1c0,0,.1,0,.1,0c0,0,0,-.1,0,-.1c0,0,.1,0,.1,0q0,-.1,0,-.1c0,0,.1,0,.1,0L285.2,184q0,-.1,0,-.1h.1q.1,0,.1,0q.1,0,.1,0c0,0,.1,0,.1,0h.1q.1,0,.1,0v.1l6.8,3.9l91.1,53.7h.1v.1h.1v.1h.1q0,.1,0,.1c0,0,0,.1,0,.1v.1Z" class="g0" style="fill: rgb(255, 255, 255);"/>
    <path clip-path="url(#c4)" d="M384,242.1q0,-.1,0,-.1c0,0,0,-.1,0,-.1v-.1c0,0,-.1,0,-.1,0c0,0,0,-.1,0,-.1c0,0,-.1,0,-.1,-.1c0,0,-.1,0,-.1,0v-.1L285.8,184c0,0,0,-.1,0,-.1h-.2q-.1,0,-.1,0c0,0,-.1,0,-.1,0c0,0,-.1,0,-.1,0q-.1,0,-.1,0c0,0,0,.1,0,.1l-97.9,57.6h-.1q0,.1,0,.1c0,0,-.1,0,-.1,0v.1c0,0,-.1,0,-.1,0c0,0,0,.1,0,.1v.1q0,.1,0,.1c0,0,0,.1,0,.1V354.8q0,.1,0,.1c0,0,.1,.1,.1,.1c0,0,0,.1,0,.1q.1,0,.1,0v.1q.1,0,.1,0l97.9,57.6c0,0,0,.1,0,.1c0,0,.1,0,.1,0q.1,0,.1,0c0,0,.1,0,.1,0q.1,0,.1,0q.1,0,.1,0q.1,0,.1,0c0,0,0,-.1,0,-.1h.1l97.8,-57.6q.1,0,.1,0c0,0,0,-.1,0,-.1c0,0,.1,0,.1,0c0,0,0,-.1,0,-.1c.1,0,.1,-.1,.1,-.1V242.2q0,-.1,0,-.1ZM286.2,410.3v-.4c0,-.3,-.3,-.6,-.7,-.6c-.4,0,-.7,.3,-.7,.6v.4L226.9,337.1h73.5l-2,3.4c-.1,.3,0,.7,.3,.9c.1,.1,.2,.1,.3,.1c.3,0,.5,-.1,.6,-.3l2.3,-4q0,-.1,0,-.1h42.2l-57.9,73.2ZM241.9,238.6c.1,.1,.3,.1,.4,.1c.2,0,.4,-.1,.5,-.3L244,237l40.2,-4.2l-58.6,102L210.7,297.7c.1,0,.2,-.2,.3,-.3l1.7,-4.3c.1,-.3,0,-.7,-.4,-.9c-.3,-.1,-.7,.1,-.9,.4l-1.3,3.5L188.9,243.5l2.8,1.2c.1,0,.2,0,.3,0c.2,0,.5,-.1,.6,-.4c.1,-.3,0,-.7,-.4,-.9l-1.9,-.8l51.8,-5.4l-.3,.4c-.3,.3,-.2,.7,.1,1Zm85.8,-.8c.1,.2,.3,.3,.5,.3c.1,0,.3,-.1,.4,-.2c.3,-.1,.3,-.4,.3,-.7l51.8,5.4l-1.8,.8c-.4,.1,-.5,.5,-.4,.9c.1,.2,.4,.4,.7,.4c0,0,.1,0,.2,-.1l2.7,-1.1l-36.7,91.3L324.1,297.9l.4,-.6c.2,-.3,0,-.8,-.3,-.9c-.3,-.2,-.7,-.1,-.9,.1l-21.2,-37h1.3c.4,0,.7,-.3,.7,-.7c0,-.4,-.3,-.7,-.7,-.7h-2.1L286.8,232.9L327,237l.7,.8Zm-101,97.9l20.9,-36.4l2.2,3.7c.1,.2,.3,.3,.6,.3c.1,0,.2,0,.3,0c.3,-.2,.4,-.6,.3,-1l-2.3,-4c-.1,-.1,-.2,-.2,-.3,-.3l22.3,-38.9c.2,.2,.4,.4,.7,.4h4.5c.4,0,.7,-.3,.7,-.7c0,-.4,-.3,-.7,-.7,-.7h-4.5q-.1,0,-.1,0l14.2,-24.7l14.2,24.7h-.9c-.3,0,-.6,.3,-.6,.7c0,.4,.3,.7,.6,.7h1.7l22.1,38.4l-1.6,2.7c-.2,.3,0,.8,.3,.9c.1,.1,.2,.1,.3,.1c.3,0,.5,-.1,.6,-.3l1.2,-2l20.9,36.4H226.7Zm-37.8,17.5l.2,-.4c.1,-.4,0,-.8,-.4,-.9c-.1,0,-.2,-.1,-.4,0V245.7l36.3,90.4l-35.7,17.1Zm172,-53.4l1.6,3.9c.1,.3,.4,.5,.6,.5c.1,0,.2,0,.3,-.1c.3,-.1,.5,-.5,.4,-.9L362.1,299c-.1,-.3,-.4,-.5,-.7,-.5l21.3,-52.8V351l-.4,-.9c-.1,-.4,-.5,-.5,-.9,-.4c-.4,.2,-.5,.6,-.4,.9l1.1,2.6L346.3,336.1l14.6,-36.3ZM327.7,235.7l-1.9,-2.3c-.2,-.3,-.6,-.3,-.9,-.1c-.3,.2,-.4,.7,-.1,1l1,1.2l-39.6,-4.1V186.5l1.1,1.4c.2,.2,.4,.3,.6,.3c.1,0,.3,-.1,.4,-.2c.3,-.2,.4,-.6,.1,-.9l91.9,54l-52.6,-5.4ZM282.2,188.6c.1,.1,.3,.2,.4,.2c.2,0,.4,-.1,.6,-.3l1.6,-2v44.9l-39.6,4.1l.5,-.6c.3,-.3,.2,-.8,-.1,-1c-.3,-.2,-.7,-.2,-.9,.1l-1.4,1.7l-52.6,5.4l91.9,-54l-.5,.6c-.3,.3,-.2,.7,.1,.9ZM190.1,354.2l35.2,-16.9L243,359.7l-4.1,-.5c-.4,0,-.8,.3,-.8,.6c0,.4,.2,.8,.6,.8l4.5,.5c.3,0,.5,-.2,.7,-.4l38.8,49.1L190.3,355.4c.2,-.1,.3,-.3,.3,-.5c0,-.3,-.2,-.6,-.5,-.7Zm137,6.5c.2,.2,.4,.4,.7,.4l4.5,-.5c.4,0,.6,-.4,.6,-.8c0,-.3,-.4,-.6,-.8,-.6l-4.1,.5l17.7,-22.4l35.2,16.9c-.3,.1,-.5,.4,-.5,.7c0,.2,.1,.4,.3,.5l-92.4,54.4l38.8,-49.1Zm-40.9,39.7v4.8c0,.4,-.3,.7,-.7,.7c-.4,0,-.7,-.3,-.7,-.7v-4.8c0,-.4,.3,-.7,.7,-.7c.4,0,.7,.3,.7,.7Zm0,-9.5v4.7c0,.4,-.3,.7,-.7,.7c-.4,0,-.7,-.3,-.7,-.7v-4.7c0,-.4,.3,-.7,.7,-.7c.4,0,.7,.3,.7,.7Zm0,-9.6v4.8c0,.4,-.3,.7,-.7,.7c-.4,0,-.7,-.3,-.7,-.7v-4.8c0,-.3,.3,-.6,.7,-.6c.4,0,.7,.3,.7,.6Zm0,-9.5v4.8c0,.4,-.3,.7,-.7,.7c-.4,0,-.7,-.3,-.7,-.7v-4.8c0,-.4,.3,-.7,.7,-.7c.4,0,.7,.3,.7,.7Zm2.3,-7.4c0,.4,-.3,.8,-.7,.8l-1.6,.2V367c0,.4,-.3,.7,-.7,.7c-.4,0,-.7,-.3,-.7,-.7v-1.6l-1.7,-.2c-.3,0,-.6,-.4,-.6,-.8c.1,-.3,.4,-.6,.8,-.6l.9,.1l-.6,-1.1c-.2,-.3,-.1,-.7,.3,-.9c.3,-.2,.7,-.1,.9,.2l.7,1.3l1.7,-3c.1,-.3,.6,-.4,.9,-.2c.3,.1,.4,.6,.2,.9l-1.6,2.8l1,-.1c.4,0,.7,.3,.8,.6Zm8.8,-.9c.1,.4,-.2,.7,-.6,.8l-4.4,.4c0,0,-.1,0,-.1,0c-.3,0,-.6,-.2,-.7,-.6c0,-.4,.3,-.7,.6,-.7l4.5,-.5c.4,0,.7,.2,.7,.6Zm8.9,-.9c.1,.4,-.2,.7,-.6,.8l-4.4,.4q-.1,0,-.1,0c-.4,0,-.6,-.2,-.7,-.6c0,-.4,.2,-.7,.6,-.8l4.5,-.4c.4,0,.7,.2,.7,.6Zm53.3,-5.5c.1,.4,-.2,.7,-.6,.7l-4.4,.5c0,0,-.1,0,-.1,0c-.3,0,-.6,-.3,-.7,-.6c0,-.4,.3,-.7,.6,-.8l4.5,-.4c.4,-.1,.7,.2,.7,.6Zm-44.4,4.6c.1,.4,-.2,.7,-.6,.7l-4.4,.5q-.1,0,-.1,0c-.4,0,-.7,-.3,-.7,-.6c0,-.4,.2,-.7,.6,-.8l4.5,-.4c.3,-.1,.7,.2,.7,.6Zm53.3,-5.5c.1,.3,-.2,.7,-.6,.7l-4.4,.5q-.1,0,-.1,0c-.4,0,-.7,-.3,-.7,-.6c0,-.4,.2,-.7,.6,-.8l4.5,-.4c.3,-.1,.7,.2,.7,.6Zm-45,5.3l-4.5,.5c-.4,0,-.7,-.3,-.7,-.6c0,-.4,.2,-.8,.6,-.8l4.4,-.5c.4,0,.8,.3,.8,.7c0,.3,-.2,.7,-.6,.7Zm18.4,-2.6c0,.4,-.3,.7,-.6,.8l-4.5,.4h-.1c-.3,0,-.6,-.2,-.6,-.6c-.1,-.4,.2,-.7,.6,-.7l4.4,-.5c.4,0,.7,.2,.8,.6Zm8.9,-.9c0,.4,-.3,.7,-.7,.8l-4.4,.4c0,0,-.1,0,-.1,0c-.3,0,-.6,-.2,-.7,-.6c0,-.4,.3,-.7,.7,-.8l4.4,-.4c.4,0,.7,.2,.8,.6Zm26.6,-2.8c0,.4,-.2,.8,-.6,.8l-4.4,.5q-.1,0,-.1,0c-.4,0,-.7,-.3,-.7,-.7c0,-.3,.2,-.7,.6,-.7l4.5,-.5c.3,0,.7,.3,.7,.6Zm-165.8,1.9c0,-.4,.3,-.7,.7,-.6l4.5,.4c.3,.1,.6,.4,.6,.8c-.1,.3,-.4,.6,-.7,.6c0,0,-.1,0,-.1,0l-4.4,-.5c-.4,0,-.7,-.3,-.6,-.7Zm8.8,.9c.1,-.4,.4,-.6,.8,-.6l4.4,.4c.4,.1,.7,.4,.7,.8c-.1,.4,-.4,.6,-.7,.6q-.1,0,-.1,0l-4.4,-.4c-.4,-.1,-.7,-.4,-.7,-.8Zm41.4,4.3c0,.3,-.3,.6,-.7,.6h-.1l-4.4,-.5c-.4,0,-.7,-.3,-.6,-.7c0,-.4,.4,-.7,.7,-.6l4.5,.4c.4,.1,.6,.4,.6,.8Zm-59.1,-6.1c0,-.4,.4,-.7,.7,-.6l4.5,.4c.3,0,.6,.4,.6,.8c-.1,.3,-.4,.6,-.7,.6h-.1l-4.4,-.5c-.4,0,-.7,-.4,-.6,-.7Zm-8.9,-1c0,-.3,.4,-.6,.7,-.6l4.5,.5c.4,0,.6,.4,.6,.7c0,.4,-.3,.7,-.7,.7h-.1l-4.4,-.5c-.4,0,-.7,-.4,-.6,-.8Zm59.1,6.2c0,.3,-.3,.6,-.7,.6H252l-4.4,-.5c-.4,0,-.6,-.4,-.6,-.7c0,-.4,.4,-.7,.7,-.6l4.5,.4c.4,0,.6,.4,.6,.8Zm-23.6,-2.5c.1,-.4,.4,-.6,.8,-.6l4.4,.5c.4,0,.7,.3,.6,.7c0,.4,-.3,.6,-.6,.6q-.1,0,-.1,0l-4.5,-.4c-.3,-.1,-.6,-.4,-.6,-.8Zm41.4,4.3c-.1,.4,-.4,.6,-.7,.6c0,0,-.1,0,-.1,0l-4.4,-.4c-.4,-.1,-.7,-.4,-.6,-.8c0,-.4,.3,-.6,.7,-.6l4.5,.4c.3,.1,.6,.4,.6,.8Zm8.9,.9c-.1,.4,-.4,.6,-.7,.6c0,0,-.1,0,-.1,0l-4.4,-.4c-.4,-.1,-.7,-.4,-.7,-.8c.1,-.4,.4,-.6,.8,-.6l4.4,.5c.4,0,.7,.3,.7,.7ZM243.2,258.8c0,-.4,.3,-.7,.7,-.7h4.5c.4,0,.7,.3,.7,.7c0,.4,-.3,.7,-.7,.7h-4.5c-.4,0,-.7,-.3,-.7,-.7Zm9.1,0c0,-.4,.3,-.7,.7,-.7h4.6c.4,0,.7,.3,.7,.7c0,.4,-.3,.7,-.7,.7H253c-.4,0,-.7,-.3,-.7,-.7Zm-17.6,-.7h4.6c.4,0,.7,.3,.7,.7c0,.4,-.3,.7,-.7,.7h-4.6c-.4,0,-.7,-.3,-.7,-.7c0,-.4,.3,-.7,.7,-.7Zm81.8,.7c0,-.4,.3,-.7,.7,-.7h4.6c.3,0,.6,.3,.6,.7c0,.4,-.3,.7,-.6,.7h-4.6c-.4,0,-.7,-.3,-.7,-.7Zm9.1,0c0,-.4,.4,-.7,.7,-.7h4.6c.4,0,.7,.3,.7,.7c0,.4,-.3,.7,-.7,.7h-4.6c-.3,0,-.7,-.3,-.7,-.7Zm-39.8,0c0,.4,-.3,.7,-.7,.7h-4.6c-.4,0,-.7,-.3,-.7,-.7c0,-.4,.3,-.7,.7,-.7h4.6c.4,0,.7,.3,.7,.7Zm21.5,0c0,-.4,.3,-.7,.7,-.7h4.6c.4,0,.7,.3,.7,.7c0,.4,-.3,.7,-.7,.7H308c-.4,0,-.7,-.3,-.7,-.7Zm27.5,0c0,-.4,.3,-.7,.7,-.7h4.6c.4,0,.7,.3,.7,.7c0,.4,-.3,.7,-.7,.7h-4.6c-.4,0,-.7,-.3,-.7,-.7Zm-39.9,0c0,.4,-.3,.7,-.6,.7h-4.6c-.4,0,-.7,-.3,-.7,-.7c0,-.4,.3,-.7,.7,-.7h4.6c.3,0,.6,.3,.6,.7Zm-33.4,0c0,-.4,.3,-.7,.7,-.7h4.6c.3,0,.7,.3,.7,.7c0,.4,-.4,.7,-.7,.7h-4.6c-.4,0,-.7,-.3,-.7,-.7Zm97.2,31.6l1.7,4.3c.1,.4,0,.8,-.4,.9c-.1,0,-.1,.1,-.2,.1c-.3,0,-.6,-.2,-.7,-.5L357.4,291c-.1,-.4,.1,-.8,.4,-.9c.4,-.2,.8,0,.9,.3Zm-8.4,-21.3c.1,.4,0,.8,-.4,.9c-.1,.1,-.2,.1,-.2,.1c-.3,0,-.6,-.2,-.7,-.5l-1.7,-4.2c-.1,-.4,.1,-.8,.4,-.9c.4,-.1,.8,0,.9,.4l1.7,4.2Zm.4,4.8c-.1,-.3,0,-.7,.4,-.9c.3,-.1,.7,0,.9,.4l1.7,4.3c.1,.3,-.1,.7,-.4,.9c-.1,0,-.2,0,-.3,0c-.2,0,-.5,-.2,-.6,-.4l-1.7,-4.3Zm6.3,12.3c.2,.3,0,.7,-.3,.9c-.1,0,-.2,0,-.3,0c-.3,0,-.5,-.1,-.6,-.4l-1.7,-4.3c-.2,-.3,0,-.7,.4,-.9c.3,-.1,.7,.1,.9,.4l1.6,4.3Zm23.6,59.6c.2,.4,0,.8,-.4,.9q-.1,.1,-.2,.1c-.3,0,-.6,-.2,-.7,-.5l-1.6,-4.2c-.2,-.4,0,-.8,.3,-.9c.4,-.1,.8,0,.9,.4l1.7,4.2Zm-6.7,-17c.1,.4,-.1,.8,-.4,.9c-.1,0,-.2,0,-.3,0c-.2,0,-.5,-.1,-.6,-.4L370.9,325c-.1,-.3,.1,-.7,.4,-.8c.4,-.2,.8,0,.9,.3l1.7,4.3Zm-6.8,-17c.2,.3,0,.7,-.3,.8c-.1,.1,-.2,.1,-.3,.1c-.3,0,-.5,-.2,-.6,-.4L364.2,308c-.2,-.4,0,-.8,.4,-.9c.3,-.1,.7,0,.9,.4l1.6,4.3Zm3.4,8.5c.1,.3,0,.7,-.4,.9q-.1,0,-.2,0c-.3,0,-.6,-.1,-.7,-.4l-1.7,-4.3c-.1,-.3,.1,-.7,.4,-.9c.4,-.1,.8,.1,.9,.4l1.7,4.3Zm6.7,17c.2,.4,0,.8,-.3,.9c-.1,0,-.2,.1,-.3,.1c-.3,0,-.5,-.2,-.6,-.5l-1.7,-4.2c-.1,-.4,0,-.8,.4,-.9c.3,-.2,.7,0,.9,.4l1.6,4.2ZM222.8,267.6l-1.7,4.2c-.1,.3,-.4,.5,-.6,.5c-.1,0,-.2,0,-.3,-.1c-.3,-.1,-.5,-.5,-.4,-.9l1.7,-4.2c.2,-.4,.6,-.6,.9,-.4c.4,.1,.5,.5,.4,.9Zm-3.4,8.5l-1.7,4.3c-.1,.2,-.3,.4,-.6,.4c-.1,0,-.2,0,-.3,-.1c-.3,-.1,-.5,-.5,-.3,-.9l1.6,-4.2c.2,-.4,.6,-.5,.9,-.4c.4,.1,.6,.5,.4,.9Zm-3.3,8.5l-1.7,4.3c-.1,.2,-.4,.4,-.7,.4q-.1,0,-.2,0c-.4,-.2,-.5,-.6,-.4,-.9l1.7,-4.3c.1,-.3,.5,-.5,.9,-.4c.3,.2,.5,.6,.4,.9Zm-6.8,17.1l-1.7,4.2c-.1,.3,-.3,.5,-.6,.5c-.1,0,-.2,-.1,-.3,-.1c-.3,-.1,-.5,-.5,-.3,-.9l1.6,-4.2c.2,-.4,.6,-.6,.9,-.4c.4,.1,.6,.5,.4,.9Zm-10.1,25.5l-1.7,4.3c-.1,.3,-.3,.4,-.6,.4c-.1,0,-.2,0,-.3,0c-.3,-.2,-.5,-.6,-.4,-.9l1.7,-4.3c.2,-.3,.6,-.5,.9,-.4c.4,.2,.6,.6,.4,.9Zm-6.7,17.1l-1.7,4.2c-.1,.3,-.4,.5,-.7,.5c0,0,-.1,0,-.2,-.1c-.4,-.1,-.5,-.5,-.4,-.9l1.7,-4.2c.1,-.4,.5,-.6,.9,-.4c.3,.1,.5,.5,.4,.9Zm3.3,-8.5l-1.6,4.2c-.1,.3,-.4,.4,-.7,.4c-.1,0,-.2,0,-.2,0c-.4,-.1,-.6,-.5,-.4,-.9l1.7,-4.3c.1,-.3,.5,-.5,.9,-.3c.3,.1,.5,.5,.3,.9Zm6.8,-17.1l-1.7,4.3c-.1,.2,-.4,.4,-.6,.4c-.1,0,-.2,0,-.3,0c-.4,-.2,-.5,-.6,-.4,-.9l1.7,-4.3c.1,-.4,.5,-.5,.9,-.4c.4,.2,.5,.6,.4,.9Zm3.4,-8.5l-1.7,4.2c-.1,.3,-.4,.5,-.7,.5q-.1,0,-.2,-.1c-.4,-.1,-.6,-.5,-.4,-.9l1.7,-4.2c.1,-.4,.5,-.5,.9,-.4c.3,.1,.5,.5,.4,.9Zm45.5,-82.4l-2.9,3.5c-.1,.2,-.3,.3,-.5,.3c-.2,0,-.3,-.1,-.5,-.2c-.3,-.2,-.3,-.6,-.1,-.9l2.9,-3.6c.3,-.3,.7,-.4,1,-.1c.3,.2,.3,.7,.1,1Zm-21.2,24l2.8,-3.5c.3,-.3,.7,-.4,1,-.1c.3,.2,.3,.6,.1,.9l-2.9,3.6c-.1,.2,-.3,.3,-.5,.3c-.2,0,-.3,-.1,-.4,-.2c-.3,-.2,-.4,-.7,-.1,-1Zm5.7,-7.1l2.9,-3.6c.2,-.2,.7,-.3,1,-.1c.3,.3,.3,.7,.1,1l-2.9,3.6c-.2,.2,-.4,.2,-.6,.2c-.1,0,-.3,0,-.4,-.1c-.3,-.3,-.3,-.7,-.1,-1Zm21.2,-24.1l-2.8,3.6c-.2,.2,-.4,.2,-.6,.2c-.1,0,-.3,0,-.4,-.1c-.3,-.2,-.3,-.7,-.1,-1l2.9,-3.5c.2,-.3,.6,-.4,.9,-.1c.3,.2,.4,.6,.1,.9Zm11.6,-14.2l-2.9,3.5c-.2,.2,-.4,.3,-.6,.3c-.1,0,-.3,-.1,-.4,-.2c-.3,-.2,-.3,-.6,-.1,-.9l2.9,-3.6c.2,-.3,.7,-.3,1,-.1c.3,.2,.3,.7,.1,1Zm-5.8,7.1l-2.9,3.6c-.1,.1,-.3,.2,-.5,.2c-.2,0,-.3,0,-.4,-.1c-.3,-.3,-.4,-.7,-.1,-1l2.8,-3.6c.3,-.3,.7,-.3,1,-.1c.3,.3,.3,.7,.1,1Zm11.5,-14.3l-2.9,3.6c-.1,.2,-.3,.3,-.5,.3c-.2,0,-.3,-.1,-.4,-.2c-.3,-.2,-.4,-.7,-.1,-1l2.8,-3.5c.3,-.3,.7,-.4,1,-.1c.3,.2,.4,.6,.1,.9Zm5.8,-7.1l-2.9,3.6c-.1,.1,-.3,.2,-.5,.2c-.2,0,-.3,0,-.5,-.1c-.3,-.3,-.3,-.7,-.1,-1l2.9,-3.6c.2,-.3,.7,-.3,1,-.1c.3,.3,.3,.7,.1,1Zm33,27.9c-.3,-.3,-.2,-.7,.1,-1c.3,-.2,.7,-.1,.9,.2l2.9,3.5c.2,.3,.2,.7,-.1,1c-.1,.1,-.3,.1,-.4,.1c-.2,0,-.4,-.1,-.6,-.2L313.3,220Zm-5.8,-7.1c-.2,-.3,-.2,-.7,.1,-1c.3,-.2,.7,-.2,1,.1l2.9,3.6c.2,.3,.1,.7,-.1,1c-.2,.1,-.3,.1,-.5,.1c-.2,0,-.4,-.1,-.5,-.3l-2.9,-3.5Zm34.6,42.8c-.3,-.3,-.2,-.8,.1,-1c.3,-.2,.7,-.2,.9,.1l2.6,3.2l3.8,-1.7c.4,-.2,.8,0,.9,.3c.2,.4,0,.8,-.3,.9l-3.7,1.7l.5,1.4c.2,.4,0,.8,-.4,.9c0,0,-.1,.1,-.2,.1c-.3,0,-.5,-.2,-.6,-.5l-.3,-.7l-.6,1c-.1,.2,-.4,.4,-.6,.4c-.1,0,-.2,-.1,-.3,-.1c-.4,-.2,-.5,-.6,-.3,-1l.7,-1.3c-.2,-.1,-.3,-.3,-.3,-.6c0,-.2,.1,-.4,.2,-.5l-2.1,-2.6Zm-5.8,-7.2c-.2,-.3,-.2,-.7,.1,-.9c.3,-.3,.7,-.2,1,.1l2.8,3.5c.3,.3,.2,.8,-.1,1c-.1,.1,-.2,.1,-.4,.1c-.2,0,-.4,0,-.5,-.2l-2.9,-3.6ZM301.7,205.8c-.2,-.3,-.1,-.8,.1,-1c.3,-.2,.8,-.2,1,.1l2.9,3.6c.2,.2,.2,.7,-.1,.9c-.1,.1,-.3,.2,-.4,.2c-.2,0,-.4,-.1,-.6,-.3l-2.9,-3.5ZM290.2,191.5c-.2,-.3,-.2,-.7,.1,-1c.3,-.2,.8,-.2,1,.1l2.9,3.6c.2,.3,.2,.7,-.1,1c-.2,.1,-.3,.1,-.5,.1c-.2,0,-.4,-.1,-.5,-.2l-2.9,-3.6Zm5.8,7.1c-.3,-.3,-.2,-.7,.1,-.9c.3,-.3,.7,-.2,1,.1l2.8,3.5c.3,.3,.2,.8,-.1,1c-.1,.1,-.2,.1,-.4,.1c-.2,0,-.4,0,-.5,-.2L296,198.6Zm23,28.5c-.2,-.3,-.2,-.7,.1,-.9c.3,-.3,.8,-.2,1,.1l2.9,3.5c.2,.3,.2,.8,-.1,1c-.2,.1,-.3,.2,-.5,.2c-.2,0,-.4,-.1,-.5,-.3L319,227.1Zm11.5,14.3c-.2,-.3,-.2,-.7,.1,-1c.3,-.2,.8,-.2,1,.1l2.9,3.6c.2,.3,.2,.7,-.1,1c-.1,.1,-.3,.1,-.4,.1c-.3,0,-.4,-.1,-.6,-.2l-2.9,-3.6ZM201,248c-.1,.3,-.4,.4,-.6,.4c-.1,0,-.2,0,-.3,0l-4.2,-1.9c-.4,-.1,-.5,-.5,-.4,-.9c.2,-.3,.6,-.5,.9,-.3l4.2,1.8c.4,.2,.5,.6,.4,.9Zm15.9,7.7l-4.2,-1.8c-.4,-.2,-.5,-.6,-.4,-.9c.2,-.4,.6,-.5,.9,-.4l4.2,1.9c.4,.1,.5,.5,.4,.9c-.1,.2,-.4,.4,-.7,.4c-.1,0,-.2,0,-.2,-.1Zm-7.5,-4c-.1,.3,-.4,.4,-.7,.4c0,0,-.1,0,-.2,0l-4.2,-1.9c-.4,-.1,-.5,-.5,-.4,-.9c.2,-.3,.6,-.5,.9,-.4l4.2,1.9c.4,.1,.5,.6,.4,.9Zm152.3,-.1c-.1,-.3,0,-.7,.4,-.9l4.2,-1.8c.3,-.2,.7,0,.9,.4c.2,.3,0,.7,-.4,.9l-4.1,1.8c-.1,0,-.2,.1,-.3,.1c-.3,0,-.5,-.2,-.7,-.5Zm8.4,-3.6c-.1,-.4,0,-.8,.4,-.9l4.2,-1.9c.3,-.1,.7,0,.9,.4c.1,.3,0,.7,-.4,.9l-4.2,1.8q-.1,.1,-.2,.1c-.3,0,-.6,-.2,-.7,-.4Zm-16.8,7.3c-.1,-.3,.1,-.7,.4,-.9l4.2,-1.8c.3,-.2,.7,0,.9,.3c.2,.4,0,.8,-.3,.9l-4.2,1.9c-.1,0,-.2,0,-.3,0c-.3,0,-.5,-.1,-.7,-.4Zm-55.9,89.8l-2.3,4c-.1,.3,-.3,.4,-.6,.4c-.1,0,-.2,0,-.3,-.1c-.3,-.2,-.5,-.6,-.3,-.9l2.3,-4c.2,-.4,.6,-.5,.9,-.3c.4,.2,.5,.6,.3,.9Zm36.1,-63.8l-2.3,4c-.1,.3,-.3,.4,-.6,.4c-.1,0,-.2,0,-.3,-.1c-.3,-.2,-.4,-.6,-.3,-.9l2.3,-4c.2,-.4,.6,-.5,.9,-.3c.4,.2,.5,.6,.3,.9Zm4.5,-7.9l-2.2,4c-.2,.2,-.4,.3,-.6,.3c-.2,0,-.3,0,-.4,-.1c-.3,-.2,-.4,-.6,-.2,-.9l2.2,-4c.2,-.3,.6,-.5,.9,-.3c.4,.2,.5,.6,.3,1Zm-45.1,79.7l-2.3,4c-.1,.2,-.3,.4,-.6,.4c-.1,0,-.2,-.1,-.3,-.1c-.4,-.2,-.5,-.6,-.3,-1l2.3,-4c.2,-.3,.6,-.4,.9,-.2c.3,.2,.5,.6,.3,.9Zm13.5,-23.9l-2.2,4c-.2,.2,-.4,.3,-.6,.3c-.2,0,-.3,0,-.4,-.1c-.3,-.1,-.4,-.6,-.2,-.9l2.2,-4c.2,-.3,.6,-.4,.9,-.2c.4,.1,.5,.6,.3,.9Zm4.5,-8l-2.2,4c-.2,.2,-.4,.4,-.6,.4c-.1,0,-.3,-.1,-.4,-.1c-.3,-.2,-.4,-.6,-.2,-1l2.2,-4c.2,-.3,.6,-.4,1,-.2c.3,.2,.4,.6,.2,.9ZM320,305.3l-2.3,4c-.1,.2,-.4,.3,-.6,.3c-.1,0,-.2,0,-.3,-.1c-.4,-.2,-.5,-.6,-.3,-.9l2.3,-4c.1,-.3,.6,-.4,.9,-.3c.3,.2,.4,.6,.3,1Zm5.5,-12.7l2.3,-4c.2,-.3,.6,-.4,.9,-.2c.4,.2,.5,.6,.3,.9l-2.3,4c-.1,.2,-.3,.4,-.6,.4c-.1,0,-.2,-.1,-.3,-.1c-.3,-.2,-.5,-.6,-.3,-1Zm-10.1,20.6l-2.2,4c-.1,.3,-.4,.4,-.6,.4c-.1,0,-.2,0,-.4,-.1c-.3,-.2,-.4,-.6,-.2,-.9l2.2,-4c.2,-.4,.6,-.5,1,-.3c.3,.2,.4,.6,.2,.9Zm23.7,-44.5l2.2,-4c.2,-.3,.6,-.4,1,-.2c.3,.1,.4,.6,.2,.9l-2.2,4c-.2,.2,-.4,.3,-.6,.3c-.1,0,-.3,0,-.4,-.1c-.3,-.1,-.4,-.6,-.2,-.9Zm-64.5,78.2c-.2,-.4,-.1,-.8,.2,-1c.4,-.2,.8,0,1,.3l2.2,4c.2,.3,.1,.7,-.2,.9c-.1,.1,-.2,.1,-.4,.1c-.2,0,-.4,-.1,-.6,-.4l-2.2,-3.9Zm-1.1,-4.7c.2,.3,.1,.7,-.2,.9c-.1,.1,-.3,.1,-.4,.1c-.2,0,-.4,-.1,-.6,-.3l-2.2,-4c-.2,-.3,-.1,-.8,.2,-.9c.4,-.2,.8,-.1,1,.2l2.2,4Zm8.8,16.9c-.1,0,-.2,.1,-.3,.1c-.3,0,-.5,-.1,-.6,-.4l-2.3,-4c-.2,-.3,-.1,-.7,.3,-.9c.3,-.2,.7,-.1,.9,.3l2.3,4c.1,.3,0,.7,-.3,.9ZM228.4,262.4c.2,.4,0,.8,-.3,1c-.1,0,-.2,.1,-.3,.1c-.3,0,-.5,-.2,-.6,-.4l-1.6,-2.7l-1.1,2.9c-.1,.3,-.4,.4,-.7,.4c0,0,-.1,0,-.2,0c-.4,-.1,-.5,-.5,-.4,-.9l1.4,-3.6L221,257.6c-.3,-.2,-.5,-.6,-.3,-.9c.1,-.4,.6,-.5,.9,-.4l3.7,1.6l2.1,-2.5c.2,-.3,.7,-.3,.9,-.1c.3,.2,.4,.7,.1,1l-1.4,1.8h3.1c.4,0,.7,.3,.7,.7c0,.4,-.3,.7,-.7,.7h-3.4l1.7,2.9ZM260,318.3c.2,.3,0,.7,-.3,.9c-.1,.1,-.2,.1,-.3,.1c-.3,0,-.5,-.1,-.6,-.4L256.5,315c-.2,-.4,0,-.8,.3,-1c.3,-.2,.7,0,.9,.3l2.3,4Zm4.5,7.9c.2,.4,.1,.8,-.3,1c-.1,0,-.2,.1,-.3,.1c-.2,0,-.5,-.2,-.6,-.4l-2.3,-4c-.1,-.3,0,-.7,.3,-.9c.3,-.2,.8,-.1,.9,.3l2.3,3.9Zm4.5,8c.2,.4,.1,.8,-.2,1c-.2,0,-.3,0,-.4,0c-.2,0,-.5,-.1,-.6,-.3l-2.2,-4c-.2,-.3,-.1,-.7,.2,-.9c.3,-.2,.8,-.1,.9,.2l2.3,4ZM255.5,310.3c.2,.3,0,.7,-.3,.9c-.1,.1,-.2,.1,-.3,.1c-.3,0,-.5,-.1,-.6,-.3L252,307c-.2,-.3,-.1,-.8,.3,-1c.3,-.1,.7,0,.9,.3l2.3,4ZM237.4,278.4c.2,.3,.1,.7,-.3,.9c-.1,.1,-.2,.1,-.3,.1c-.2,0,-.5,-.1,-.6,-.3l-2.3,-4c-.1,-.3,0,-.8,.3,-.9c.3,-.2,.8,-.1,.9,.2l2.3,4Zm-4.5,-8c.2,.4,.1,.8,-.3,1c-.1,0,-.2,0,-.3,0c-.2,0,-.5,-.1,-.6,-.3l-2.3,-4c-.2,-.3,0,-.7,.3,-.9c.3,-.2,.7,-.1,.9,.2l2.3,4Zm6.8,12l2.2,4c.2,.3,.1,.7,-.2,.9c-.1,.1,-.3,.1,-.4,.1c-.2,0,-.4,-.1,-.6,-.4l-2.2,-3.9c-.2,-.4,-.1,-.8,.2,-1c.4,-.2,.8,0,1,.3ZM243,291c-.2,-.3,-.1,-.7,.2,-.9c.4,-.2,.8,-.1,1,.3l2.2,4c.2,.3,.1,.7,-.2,.9c-.1,0,-.2,.1,-.4,.1c-.2,0,-.4,-.1,-.6,-.4L243,291Z" class="g2" style="fill: rgb(143, 227, 217);"/>
    <path d="M264.2,326.4c-.6,0,-1.2,-.2,-1.7,-.6L230.1,300.5c-.7,-.6,-1.1,-1.4,-1.1,-2.3c0,-.9,.4,-1.7,1.1,-2.2l32.4,-25.3c.5,-.4,1.1,-.7,1.7,-.7c.9,0,1.8,.4,2.3,1.1c.5,.6,.7,1.4,.6,2.1c-.1,.8,-.5,1.5,-1.1,1.9l-29.5,23.1L266,321.3c.6,.5,1,1.2,1.1,1.9c.1,.8,-.1,1.5,-.6,2.1c-.5,.7,-1.4,1.1,-2.3,1.1Z" class="g3"/>
    <path d="M264.2,268.8c-.9,0,-1.8,.3,-2.5,.9L229.3,295c-.9,.8,-1.5,2,-1.5,3.2c0,1.3,.6,2.4,1.5,3.2l32.4,25.4c.7,.5,1.6,.8,2.5,.8c1.3,0,2.5,-.5,3.3,-1.5c.6,-.9,.9,-1.9,.8,-3c-.1,-1.1,-.7,-2.1,-1.5,-2.7L238.5,298.2l28.3,-22.1c.8,-.7,1.4,-1.6,1.5,-2.7c.1,-1.1,-.2,-2.2,-.8,-3c-.8,-1,-2,-1.6,-3.3,-1.6Zm0,2.5c.5,0,1,.2,1.3,.6c.6,.7,.5,1.7,-.2,2.3l-30.8,24l30.8,24.1c.7,.5,.8,1.6,.2,2.3c-.3,.4,-.8,.6,-1.3,.6c-.3,0,-.7,-.1,-1,-.4L230.9,299.5c-.4,-.3,-.7,-.8,-.7,-1.3c0,-.5,.3,-.9,.7,-1.3l32.3,-25.3c.3,-.2,.7,-.3,1,-.3Z" class="g3"/>
    <path d="M307,326.4c-.9,0,-1.8,-.4,-2.3,-1.1c-1,-1.2,-.8,-3,.5,-4l29.5,-23.1L305.2,275.1c-1.3,-.9,-1.5,-2.7,-.5,-4c.5,-.7,1.4,-1.1,2.3,-1.1c.6,0,1.2,.3,1.7,.7L341.1,296c.7,.5,1.1,1.3,1.1,2.2c0,.9,-.4,1.7,-1.1,2.3l-32.4,25.3c-.5,.4,-1.1,.6,-1.7,.6Z" class="g3"/>
    <path d="M307,268.8c-1.3,0,-2.5,.6,-3.3,1.6c-1.4,1.7,-1,4.3,.7,5.7l28.3,22.1l-28.3,22.2c-1.7,1.3,-2.1,3.9,-.7,5.7c.8,1,2,1.5,3.3,1.5c.9,0,1.8,-.3,2.5,-.8l32.3,-25.4c1,-.8,1.6,-1.9,1.6,-3.2c0,-1.2,-.6,-2.4,-1.5,-3.2L309.5,269.7c-.7,-.6,-1.6,-.9,-2.5,-.9Zm0,2.5c.3,0,.7,.1,1,.3l32.3,25.3c.4,.4,.7,.8,.7,1.3c0,.5,-.3,1,-.7,1.3L308,324.8c-.3,.3,-.7,.4,-1,.4c-.5,0,-1,-.2,-1.3,-.6c-.6,-.7,-.5,-1.8,.2,-2.3l30.8,-24.1l-30.8,-24c-.7,-.6,-.8,-1.6,-.2,-2.3c.3,-.4,.8,-.6,1.3,-.6Z" class="g3"/>
    <path d="M269.5,341.7c-.3,0,-.7,-.1,-1,-.2c-.7,-.3,-1.3,-.8,-1.6,-1.5c-.3,-.7,-.3,-1.5,-.1,-2.2l31.7,-81.2c.4,-1.1,1.4,-1.8,2.6,-1.8c.4,0,.7,0,1.1,.2c1.4,.5,2.2,2.2,1.6,3.6l-31.6,81.3c-.4,1.1,-1.5,1.8,-2.7,1.8Z" class="g3"/>
    <path d="M301.1,253.5c-1.7,0,-3.2,1.1,-3.8,2.6l-31.6,81.3c-.4,1,-.4,2.1,.1,3.1c.4,1,1.2,1.7,2.2,2.1c.5,.2,1,.3,1.5,.3c1.7,0,3.2,-1,3.8,-2.6l31.6,-81.2c.9,-2.1,-.2,-4.5,-2.3,-5.3c-.5,-.2,-1,-.3,-1.5,-.3Zm0,2.5c.2,0,.4,0,.6,.1c.9,.3,1.3,1.3,1,2.1L271,339.4c-.2,.7,-.8,1.1,-1.5,1.1c-.2,0,-.4,-.1,-.6,-.1c-.8,-.4,-1.3,-1.3,-.9,-2.1L299.6,257c.2,-.6,.9,-1,1.5,-1Z" class="g3"/>
  </g>
</svg>